<svg width="1420" height="327" viewBox="0 0 1420 327" fill="none" xmlns="http://www.w3.org/2000/svg">
<path d="M94.7322 103.304C118.811 103.304 140.977 116.542 153.577 132.207V107.324H198.634V307.981H153.577V282.267C140.977 298.694 118.811 312.001 94.7322 312.001C40.1094 312.001 0 265.008 0 207.618C0 150.228 40.1094 103.234 94.7322 103.234V103.304ZM45.0572 207.687C45.0572 239.016 69.5318 264.661 99.2841 264.661C129.036 264.661 153.511 238.947 153.511 207.687C153.511 176.428 129.036 150.713 99.2841 150.713C69.5318 150.713 45.0572 176.428 45.0572 207.687Z" fill="#4361EE"/>
<path d="M242.96 307.982V107.325H288.017V130.198C301.013 114.117 320.87 103.305 345.345 103.305V148.288C343.827 147.872 341.914 147.872 340.397 147.872C311.766 147.872 288.083 169.151 288.083 199.648V307.982H243.026H242.96Z" fill="#4361EE"/>
<path d="M374.382 107.325H419.439V129.019C433.556 113.355 454.205 103.305 476.766 103.305C505.793 103.305 528.684 117.375 540.955 141.01C558.173 118.137 578.359 103.305 608.969 103.305C653.301 103.305 683.845 136.228 683.845 187.172V307.982H638.788V197.222C638.788 163.537 621.965 147.872 597.886 147.872C571.894 147.872 551.642 167.973 551.642 198.816V307.982H506.585V197.222C506.585 163.537 489.762 147.872 465.684 147.872C439.692 147.872 419.439 167.973 419.439 199.648V307.982H374.382V107.325Z" fill="#4361EE"/>
<path d="M750.666 15C765.575 15 777.384 27.8227 777.384 43.0713C777.384 58.3199 765.509 71.5584 750.666 71.5584C735.823 71.5584 723.948 58.7357 723.948 43.0713C723.948 27.4068 735.757 15 750.666 15ZM728.104 307.981V107.323H773.162V307.981H728.104Z" fill="#4361EE"/>
<path d="M817.503 307.982V107.325H862.56V129.019C876.678 113.355 897.326 103.305 919.887 103.305C964.219 103.305 994.763 136.228 994.763 187.172V307.982H949.706V197.222C949.706 163.537 932.884 147.872 908.805 147.872C882.813 147.872 862.56 167.973 862.56 199.648V307.982H817.503Z" fill="#4361EE"/>
<path d="M1180.39 141.938L1215.54 177.094L1180.39 212.25L1156.95 188.812H1110.08L1098.36 200.531V247.406L1110.08 259.125H1156.95L1180.39 235.688L1215.54 270.844L1180.39 306H1086.64L1051.48 270.844V177.094L1086.64 141.938H1180.39ZM1309.01 188.812L1355.89 141.938H1391.04V177.094L1344.17 223.969L1391.04 270.844V306H1355.89L1309.01 259.125L1262.14 306H1226.98V270.844L1273.86 223.969L1226.98 177.094V141.938H1262.14L1309.01 188.812Z" fill="url(#paint0_linear_1607_9241)"/>
<defs>
<linearGradient id="paint0_linear_1607_9241" x1="1061.42" y1="284.237" x2="1382.57" y2="186.209" gradientUnits="userSpaceOnUse">
<stop stop-color="#00FFCE"/>
<stop offset="1" stop-color="#4361EE"/>
</linearGradient>
</defs>
</svg>
